# xmcd CD database file
#
# Track frame offsets:
#	150
#	13683
#	25676
#	38605
#	50278
#	63413
#	76492
#	90274
#	105062
#	117849
#	130010
#	142924
#	157650
#	171502
#	186091
#	199066
#	214871
#
# Disc length: 3008 seconds
#
# Revision: 0
# Processed by: cddbd v1.5.1PL0 Copyright (c) Steve Scherf et al.
# Submitted via: CDex 1.51
#
DISCID=ca0bbe11
DTITLE=Charles Mingus - Ultimate jazz and blues cd 9
DYEAR=2004
DGENRE=Jazz
TTITLE0=Mingus Fingers
TTITLE1=Say it isn't so
TTITLE2=This subdues my passion
TTITLE3=Lyon's roar
TTITLE4=Shuffle bass boogie
TTITLE5=Ain't jiving' blues
TTITLE6=Wierd nightmare
TTITLE7=These fools things
TTITLE8=Baby, take a chance with me
TTITLE9=Make belive
TTITLE10=Boppin' in boston
TTITLE11=Pipe dream
TTITLE12=Bedspread
TTITLE13=Honey, take a chance with me
TTITLE14=Story of love
TTITLE15=He's gone
TTITLE16=Pennies from heaven
EXTD=YEAR: 2004
EXTT0=
EXTT1=
EXTT2=
EXTT3=
EXTT4=
EXTT5=
EXTT6=
EXTT7=
EXTT8=
EXTT9=
EXTT10=
EXTT11=
EXTT12=
EXTT13=
EXTT14=
EXTT15=
EXTT16=
PLAYORDER=
